<svg width="12" height="12" viewBox="0 0 12 12" fill="none" xmlns="http://www.w3.org/2000/svg">
<path fill-rule="evenodd" clip-rule="evenodd" d="M6.01232 11.8559C2.78489 11.8559 0.168701 9.23975 0.168701 6.01232C0.168701 2.78489 2.78489 0.168701 6.01232 0.168701C9.23975 0.168701 11.8559 2.78489 11.8559 6.01232C11.8559 9.23975 9.23975 11.8559 6.01232 11.8559ZM10.6872 6.01232C10.6872 4.77246 10.1947 3.58338 9.31797 2.70667C8.44126 1.82996 7.25218 1.33743 6.01232 1.33743C4.77246 1.33743 3.58338 1.82996 2.70667 2.70667C1.82996 3.58338 1.33743 4.77246 1.33743 6.01232C1.33743 7.25218 1.82996 8.44126 2.70667 9.31797C3.58338 10.1947 4.77246 10.6872 6.01232 10.6872C7.25218 10.6872 8.44126 10.1947 9.31797 9.31797C10.1947 8.44126 10.6872 7.25218 10.6872 6.01232ZM8.34977 5.42796C8.50475 5.42796 8.65339 5.48953 8.76298 5.59912C8.87257 5.70871 8.93413 5.85734 8.93413 6.01232C8.93413 6.16731 8.87257 6.31594 8.76298 6.42553C8.65339 6.53512 8.50475 6.59668 8.34977 6.59668H6.59668C5.95389 6.59668 5.42796 6.07076 5.42796 5.42796V3.09051C5.42796 2.93553 5.48953 2.78689 5.59912 2.67731C5.70871 2.56772 5.85734 2.50615 6.01232 2.50615C6.16731 2.50615 6.31594 2.56772 6.42553 2.67731C6.53512 2.78689 6.59668 2.93553 6.59668 3.09051V5.42796H8.34977Z" fill="#A2A3A4"/>
</svg>
