<svg width="23" height="23" viewBox="0 0 23 23" fill="none" xmlns="http://www.w3.org/2000/svg">
<g clip-path="url(#clip0_0_1891)">
<path d="M13.0127 6.90757C14.359 6.90757 15.4503 5.81624 15.4503 4.47002C15.4503 3.1238 14.359 2.03247 13.0127 2.03247C11.6665 2.03247 10.5752 3.1238 10.5752 4.47002C10.5752 5.81624 11.6665 6.90757 13.0127 6.90757Z" fill="#B3B3B3"/>
<path d="M15.5053 16.7978C15.438 16.7525 15.3622 16.7211 15.2826 16.7055C15.203 16.6898 15.121 16.6902 15.0415 16.7067C14.9621 16.7232 14.8867 16.7553 14.8198 16.8013C14.753 16.8473 14.696 16.9062 14.6521 16.9745C14.063 17.8469 13.3414 18.6221 12.5132 19.2719C12.3121 19.4243 11.5626 20.0032 11.2457 19.8813C11.0263 19.8143 11.1543 19.3816 11.1969 19.1988L11.5199 18.242C11.654 17.852 13.9879 10.9294 14.2439 10.1372C14.6217 8.97935 14.4571 7.8398 12.7326 8.11402C12.2634 8.16277 7.50403 8.77825 7.41872 8.78435C7.33869 8.78955 7.26048 8.81046 7.18853 8.84589C7.11659 8.88132 7.05233 8.93058 6.99942 8.99084C6.94651 9.05111 6.90599 9.1212 6.88017 9.19713C6.85435 9.27305 6.84374 9.35332 6.84894 9.43334C6.85414 9.51337 6.87506 9.59159 6.91049 9.66353C6.94592 9.73548 6.99517 9.79974 7.05544 9.85265C7.1157 9.90555 7.1858 9.94607 7.26172 9.97189C7.33765 9.99771 7.41791 10.0083 7.49794 10.0031C7.49794 10.0031 9.3261 9.76546 9.5272 9.74718C9.6302 9.73712 9.73392 9.75709 9.82583 9.80466C9.91774 9.85224 9.99392 9.9254 10.0452 10.0153C10.1556 10.3566 10.1405 10.7262 10.0025 11.0574C9.84408 11.6667 7.3395 18.7235 7.26028 19.1317C7.17531 19.4734 7.1989 19.8331 7.32777 20.1607C7.45664 20.4883 7.68439 20.7677 7.97936 20.9599C8.53299 21.3289 9.19219 21.5065 9.85627 21.4657C10.502 21.4578 11.1405 21.3297 11.7393 21.0879C13.2567 20.4785 14.8411 18.8575 15.6759 17.5839C15.7478 17.4545 15.7701 17.3034 15.7387 17.1587C15.7073 17.014 15.6244 16.8857 15.5053 16.7978Z" fill="#B3B3B3"/>
</g>
<defs>
<clipPath id="clip0_0_1891">
<rect x="0.368164" y="0.813721" width="21.9379" height="21.9379" rx="10.969" fill="white"/>
</clipPath>
</defs>
</svg>
