<svg width="23" height="23" viewBox="0 0 23 23" fill="none" xmlns="http://www.w3.org/2000/svg">
<path d="M11.0626 8.47842C10.1431 8.47842 9.26119 8.83956 8.61099 9.4824C7.96078 10.1252 7.5955 10.9971 7.5955 11.9062C7.5955 12.8153 7.96078 13.6872 8.61099 14.33C9.26119 14.9729 10.1431 15.334 11.0626 15.334C11.9821 15.334 12.864 14.9729 13.5142 14.33C14.1644 13.6872 14.5297 12.8153 14.5297 11.9062C14.5297 10.9971 14.1644 10.1252 13.5142 9.4824C12.864 8.83956 11.9821 8.47842 11.0626 8.47842ZM8.7512 11.9062C8.7512 11.3001 8.99472 10.7189 9.42819 10.2903C9.86166 9.86178 10.4496 9.62102 11.0626 9.62102C11.6756 9.62102 12.2635 9.86178 12.697 10.2903C13.1305 10.7189 13.374 11.3001 13.374 11.9062C13.374 12.5123 13.1305 13.0935 12.697 13.5221C12.2635 13.9507 11.6756 14.1914 11.0626 14.1914C10.4496 14.1914 9.86166 13.9507 9.42819 13.5221C8.99472 13.0935 8.7512 12.5123 8.7512 11.9062ZM8.97956 20.8039C9.66327 20.9652 10.3632 21.0466 11.0658 21.0466C11.767 21.0458 12.4656 20.9639 13.1475 20.8025C13.3267 20.7598 13.4883 20.6636 13.6103 20.5268C13.7322 20.3901 13.8085 20.2195 13.8289 20.0383L13.9851 18.6348C14.0115 18.3838 14.1277 18.1503 14.3127 17.9765C14.4977 17.8026 14.7394 17.6998 14.9943 17.6864C15.1639 17.6791 15.3327 17.7106 15.488 17.7778L16.7856 18.3404C16.8984 18.3906 17.0206 18.4169 17.1443 18.4177C17.268 18.4185 17.3905 18.3937 17.504 18.345C17.6182 18.297 17.7203 18.2257 17.8045 18.1357C18.7586 17.1189 19.4709 15.9042 19.8893 14.5804C19.9441 14.4047 19.9424 14.2166 19.8845 14.042C19.8265 13.8674 19.7151 13.7149 19.5657 13.6055L18.4128 12.7645C18.2755 12.6659 18.1637 12.5366 18.0867 12.3871C18.0096 12.2376 17.9694 12.0722 17.9694 11.9044C17.9694 11.7366 18.0096 11.5712 18.0867 11.4217C18.1637 11.2722 18.2755 11.1428 18.4128 11.0442L19.562 10.2051C19.7118 10.0955 19.8235 9.94263 19.8814 9.76755C19.9394 9.59248 19.9409 9.40391 19.8856 9.22797C19.4671 7.90395 18.7539 6.68943 17.7985 5.67356C17.6719 5.53979 17.5064 5.44816 17.3249 5.41132C17.1434 5.37448 16.9548 5.39425 16.7851 5.46789L15.488 6.0328C15.3539 6.09267 15.2078 6.1242 15.0599 6.1242C14.7936 6.12369 14.5369 6.02601 14.339 5.8499C14.1411 5.67379 14.0159 5.43165 13.9874 5.1699L13.8303 3.77136C13.8101 3.5878 13.7325 3.41505 13.6081 3.27729C13.4838 3.13953 13.319 3.04365 13.1368 3.00307C12.4584 2.85333 11.766 2.77383 11.0709 2.76587C10.3711 2.77386 9.67392 2.8535 8.99066 3.00353C8.80869 3.04388 8.64402 3.13945 8.51969 3.27688C8.39536 3.4143 8.31759 3.58671 8.29724 3.76999L8.14007 5.16945C8.11041 5.43161 7.984 5.67375 7.78504 5.84952C7.58199 6.02006 7.32606 6.11682 7.05972 6.12375C6.91283 6.12365 6.76754 6.09346 6.63304 6.03508L5.33866 5.47018C5.16844 5.39587 4.97904 5.37584 4.79678 5.41286C4.61451 5.44989 4.44844 5.54212 4.32164 5.67676C3.36753 6.69285 2.6552 7.90695 2.23677 9.23025C2.18149 9.40612 2.18295 9.59464 2.24093 9.76965C2.29892 9.94466 2.41056 10.0975 2.56036 10.2069L3.71051 11.0461C3.91597 11.1962 4.06117 11.4133 4.12047 11.659C4.17976 11.9047 4.14934 12.1632 4.03457 12.3889C3.95825 12.5385 3.8474 12.6683 3.71097 12.7677L2.5599 13.6082C2.41022 13.7176 2.29866 13.8703 2.24068 14.0451C2.1827 14.2199 2.18117 14.4083 2.23631 14.584C2.654 15.9086 3.36639 17.1239 4.32118 18.1407C4.44732 18.2753 4.61277 18.3676 4.7945 18.4048C4.97622 18.442 5.16515 18.4222 5.33496 18.3482L6.63766 17.7829C6.77218 17.7243 6.91734 17.6942 7.06434 17.6942H7.06804C7.33332 17.6945 7.5892 17.7913 7.78697 17.9661C7.98473 18.1409 8.11058 18.3815 8.14053 18.6421L8.29678 20.0393C8.31713 20.2207 8.39363 20.3915 8.51583 20.5284C8.63803 20.6652 8.79998 20.7614 8.97956 20.8039ZM12.7074 19.7321C11.6256 19.9606 10.5069 19.9606 9.4252 19.7321L9.28467 18.5155C9.22357 17.9756 8.96359 17.4769 8.55434 17.1144C8.14508 16.752 7.61519 16.5511 7.06573 16.5502H7.06111C6.75466 16.549 6.45136 16.6112 6.17076 16.733L5.04003 17.2234C4.30652 16.4055 3.74685 15.4501 3.39431 14.414L4.39515 13.6827C4.67719 13.4771 4.90644 13.2089 5.06443 12.8996C5.22242 12.5904 5.30473 12.2488 5.30473 11.9023C5.30473 11.5559 5.22242 11.2143 5.06443 10.905C4.90644 10.5958 4.67719 10.3275 4.39515 10.1219L3.39478 9.39067C3.74798 8.35576 4.30777 7.40149 5.04095 6.58444L6.16521 7.07439C6.44627 7.19763 6.75041 7.261 7.05787 7.26041H7.06249C7.61326 7.25928 8.14433 7.05776 8.55443 6.69428C8.96453 6.33081 9.22496 5.83081 9.28606 5.28965L9.42474 4.07392C9.96707 3.96648 10.5183 3.90895 11.0714 3.90207C11.6201 3.90893 12.167 3.96606 12.7051 4.07346L12.8438 5.28873C12.9031 5.82987 13.1623 6.33032 13.5718 6.69416C13.9813 7.058 14.5121 7.25963 15.0627 7.26041C15.3732 7.26766 15.6811 7.20351 15.9623 7.07302L17.0856 6.58353C17.8192 7.40051 18.3792 8.35499 18.7323 9.39022L17.7351 10.1183C17.4511 10.323 17.22 10.5911 17.0606 10.9009C16.9013 11.2106 16.8182 11.5532 16.8182 11.9007C16.8182 12.2483 16.9013 12.5908 17.0606 12.9006C17.22 13.2104 17.4511 13.4785 17.7351 13.6832L18.736 14.4145C18.3826 15.4492 17.823 16.4034 17.0902 17.2207L15.9623 16.7317C15.6412 16.5908 15.2909 16.527 14.9401 16.5455C14.5893 16.564 14.2479 16.6642 13.9437 16.838C13.6396 17.0118 13.3813 17.2543 13.19 17.5455C12.9987 17.8368 12.8797 18.1687 12.8428 18.5141L12.7074 19.7321Z" fill="#B3B3B3"/>
</svg>
