<svg width="27" height="27" viewBox="0 0 27 27" fill="none" xmlns="http://www.w3.org/2000/svg">
<path d="M19.6996 17.172L21.031 18.5032L26.3565 13.1783L21.031 7.85352L19.6996 9.18475L22.7523 12.237H9.41089V14.1196H22.7523L19.6996 17.172Z" fill="#B3B3B3"/>
<path d="M21.152 21.1655C19.0184 23.2989 16.1817 24.4738 13.1644 24.4738C10.1467 24.4738 7.30955 23.2989 5.1757 21.1655C3.04179 19.032 1.88284 16.1954 1.88284 13.1782C1.88284 10.1613 3.04179 7.32479 5.17576 5.19122C7.30967 3.05764 10.1468 1.8826 13.1644 1.8826C16.1816 1.8826 19.0183 3.05764 21.152 5.19116C21.3 5.33943 21.4439 5.4917 21.5835 5.64781H23.9801C21.5986 2.23394 17.6426 0 13.1644 0C5.88512 0 0 5.90066 0 13.1782C0 20.4565 5.88512 26.3564 13.1644 26.3564C17.6427 26.3564 21.5989 24.1226 23.9802 20.7086H21.5837C21.444 20.8648 21.3001 21.0172 21.152 21.1655Z" fill="#B3B3B3"/>
</svg>
