<svg width="15" height="16" viewBox="0 0 15 16" fill="none" xmlns="http://www.w3.org/2000/svg">
<path d="M3.12978 8.21141C3.25506 8.21141 3.35662 8.10986 3.35662 7.98458C3.35662 7.85931 3.25506 7.75775 3.12978 7.75775C3.00451 7.75775 2.90295 7.85931 2.90295 7.98458C2.90295 8.10986 3.00451 8.21141 3.12978 8.21141Z" fill="black"/>
<path d="M11.9011 8.21141C12.0264 8.21141 12.128 8.10986 12.128 7.98458C12.128 7.85931 12.0264 7.75775 11.9011 7.75775C11.7759 7.75775 11.6743 7.85931 11.6743 7.98458C11.6743 8.10986 11.7759 8.21141 11.9011 8.21141Z" fill="black"/>
<path d="M7.51546 15.5002C6.02904 15.5001 4.57602 15.0593 3.34013 14.2334C2.10423 13.4076 1.14097 12.2338 0.572135 10.8605C0.00329779 9.48727 -0.145567 7.97616 0.144362 6.51828C0.434292 5.06041 1.15 3.72123 2.20098 2.67009C3.61334 1.27443 5.52061 0.494359 7.50621 0.500262C9.49181 0.506165 11.3944 1.29756 12.7984 2.7016C14.2025 4.10564 14.9939 6.00823 14.9998 7.99384C15.0057 9.97944 14.2256 11.8867 12.83 13.2991C12.1336 13.9991 11.3054 14.5541 10.3932 14.9319C9.48094 15.3098 8.50284 15.5029 7.51546 15.5002Z" fill="#F8BE32"/>
<path d="M7.51548 14.1241C6.30113 14.1242 5.11402 13.7642 4.1043 13.0896C3.09457 12.415 2.30758 11.4561 1.84286 10.3341C1.37814 9.21224 1.25655 7.97771 1.49348 6.7867C1.73042 5.59568 2.31522 4.50168 3.17394 3.64305C4.32539 2.4916 5.88709 1.84473 7.51548 1.84473C9.14387 1.84473 10.7056 2.4916 11.857 3.64305C13.0085 4.7945 13.6553 6.35619 13.6553 7.98458C13.6553 9.61298 13.0085 11.1747 11.857 12.3261C11.2882 12.898 10.6115 13.3513 9.86632 13.6599C9.1211 13.9686 8.32207 14.1263 7.51548 14.1241Z" fill="#FED947"/>
<path d="M11.857 3.64303C11.2881 3.07119 10.6115 2.61784 9.8663 2.30921C9.12108 2.00058 8.32205 1.84281 7.51545 1.84502C7.28811 1.84518 7.06094 1.8577 6.83496 1.88253C7.98424 2.01057 9.07399 2.46058 9.97874 3.18076C10.8835 3.90093 11.5665 4.86198 11.949 5.95326C12.3316 7.04453 12.3982 8.22166 12.1411 9.34912C11.884 10.4766 11.3138 11.5085 10.496 12.3261C9.51338 13.3142 8.22177 13.9357 6.83647 14.0869C7.06196 14.1116 7.28862 14.124 7.51545 14.1241C8.7298 14.1242 9.91691 13.7642 10.9266 13.0896C11.9364 12.4149 12.7233 11.456 13.1881 10.3341C13.6528 9.21222 13.7744 7.97769 13.5374 6.78668C13.3005 5.59567 12.7157 4.50167 11.857 3.64303Z" fill="#FED030"/>
<path d="M6.88037 8.96812H5.39993C5.33977 8.96812 5.28207 8.94423 5.23953 8.90169C5.19699 8.85915 5.1731 8.80145 5.1731 8.74129C5.1731 8.68113 5.19699 8.62344 5.23953 8.5809C5.28207 8.53836 5.33977 8.51446 5.39993 8.51446H6.88037C7.29459 8.51446 7.69184 8.34992 7.98473 8.05702C8.27763 7.76413 8.44218 7.36688 8.44218 6.95266C8.44218 6.53844 8.27763 6.14119 7.98473 5.8483C7.69184 5.5554 7.29459 5.39086 6.88037 5.39086H5.84724C5.78708 5.39086 5.72938 5.36696 5.68684 5.32442C5.6443 5.28188 5.62041 5.22418 5.62041 5.16403C5.62041 5.10387 5.6443 5.04617 5.68684 5.00363C5.72938 4.96109 5.78708 4.93719 5.84724 4.93719H6.88037C7.14505 4.93719 7.40713 4.98933 7.65166 5.09061C7.89618 5.1919 8.11837 5.34036 8.30552 5.52751C8.49267 5.71466 8.64113 5.93685 8.74242 6.18137C8.84371 6.4259 8.89584 6.68798 8.89584 6.95266C8.89584 7.21733 8.84371 7.47942 8.74242 7.72394C8.64113 7.96847 8.49267 8.19065 8.30552 8.37781C8.11837 8.56496 7.89618 8.71342 7.65166 8.8147C7.40713 8.91599 7.14505 8.96812 6.88037 8.96812Z" fill="white"/>
<path d="M9.63259 5.39086H5.39993C5.33977 5.39086 5.28208 5.36696 5.23954 5.32442C5.197 5.28188 5.1731 5.22418 5.1731 5.16403C5.1731 5.10387 5.197 5.04617 5.23954 5.00363C5.28208 4.96109 5.33977 4.93719 5.39993 4.93719H9.63259C9.69275 4.93719 9.75044 4.96109 9.79298 5.00363C9.83552 5.04617 9.85942 5.10387 9.85942 5.16403C9.85942 5.22418 9.83552 5.28188 9.79298 5.32442C9.75044 5.36696 9.69275 5.39086 9.63259 5.39086ZM9.63259 7.17949H5.39993C5.33977 7.17949 5.28208 7.15559 5.23954 7.11305C5.197 7.07051 5.1731 7.01282 5.1731 6.95266C5.1731 6.8925 5.197 6.8348 5.23954 6.79227C5.28208 6.74973 5.33977 6.72583 5.39993 6.72583H9.63259C9.69275 6.72583 9.75044 6.74973 9.79298 6.79227C9.83552 6.8348 9.85942 6.8925 9.85942 6.95266C9.85942 7.01282 9.83552 7.07051 9.79298 7.11305C9.75044 7.15559 9.69275 7.17949 9.63259 7.17949ZM8.59915 12.0639C8.54023 12.064 8.4836 12.0411 8.44127 12.0001L5.24236 8.90431C5.22076 8.88364 5.20347 8.85891 5.19146 8.83153C5.17946 8.80416 5.17298 8.77468 5.17241 8.74479C5.17183 8.71491 5.17717 8.6852 5.18811 8.65739C5.19906 8.62957 5.21539 8.60419 5.23618 8.58271C5.25696 8.56122 5.28179 8.54406 5.30923 8.53221C5.33667 8.52035 5.36618 8.51403 5.39607 8.51362C5.42596 8.51321 5.45563 8.51871 5.48339 8.52981C5.51115 8.5409 5.53644 8.55738 5.55781 8.57828L8.75702 11.6744C8.7895 11.7058 8.81185 11.7462 8.82121 11.7904C8.83057 11.8346 8.8265 11.8806 8.80954 11.9225C8.79258 11.9644 8.76349 12.0003 8.726 12.0255C8.68851 12.0508 8.64434 12.0642 8.59915 12.0642V12.0639Z" fill="white"/>
<path d="M3.12978 8.21141C3.25506 8.21141 3.35662 8.10986 3.35662 7.98458C3.35662 7.85931 3.25506 7.75775 3.12978 7.75775C3.00451 7.75775 2.90295 7.85931 2.90295 7.98458C2.90295 8.10986 3.00451 8.21141 3.12978 8.21141Z" fill="white"/>
<path d="M11.9011 8.21141C12.0264 8.21141 12.128 8.10986 12.128 7.98458C12.128 7.85931 12.0264 7.75775 11.9011 7.75775C11.7759 7.75775 11.6743 7.85931 11.6743 7.98458C11.6743 8.10986 11.7759 8.21141 11.9011 8.21141Z" fill="white"/>
</svg>
