<svg width="23" height="23" viewBox="0 0 23 23" fill="none" xmlns="http://www.w3.org/2000/svg">
<path d="M11.3369 1.83227C8.73075 1.83227 6.23137 2.86755 4.38857 4.71035C2.54577 6.55315 1.51049 9.05253 1.51049 11.6586C1.51049 14.2648 2.54577 16.7641 4.38857 18.6069C6.23137 20.4497 8.73075 21.485 11.3369 21.485C13.943 21.485 16.4424 20.4497 18.2852 18.6069C20.128 16.7641 21.1632 14.2648 21.1632 11.6586C21.1632 9.05253 20.128 6.55315 18.2852 4.71035C16.4424 2.86755 13.943 1.83227 11.3369 1.83227ZM11.5654 3.6637C12.5378 3.69149 13.4977 3.89649 14.3976 4.26926C15.368 4.67121 16.2498 5.26035 16.9925 6.00305C17.7352 6.74576 18.3243 7.62747 18.7262 8.59786C19.1282 9.56825 19.3351 10.6083 19.3351 11.6586C19.3351 12.709 19.1282 13.749 18.7262 14.7194C18.3243 15.6898 17.7352 16.5715 16.9925 17.3142C16.2498 18.0569 15.368 18.6461 14.3976 19.048C13.4977 19.4208 12.5378 19.6258 11.5654 19.6536V3.6637Z" fill="#B3B3B3" stroke="#B3B3B3" stroke-width="0.457041"/>
</svg>
