<svg width="20" height="20" viewBox="0 0 20 20" fill="none" xmlns="http://www.w3.org/2000/svg">
<path d="M18.75 17.647H1.25C0.559644 17.647 0 18.1737 0 18.8234C0 19.4732 0.559644 19.9999 1.25 19.9999H18.75C19.4404 19.9999 20 19.4732 20 18.8234C20 18.1737 19.4404 17.647 18.75 17.647Z" fill="white"/>
<path d="M0 16.4706L0 18.8235C0 19.4733 0.559644 20 1.25 20C1.94036 20 2.5 19.4733 2.5 18.8235L2.5 16.4706C2.5 15.8208 1.94036 15.2941 1.25 15.2941C0.559644 15.2941 0 15.8208 0 16.4706Z" fill="white"/>
<path d="M17.5 16.4706V18.8235C17.5 19.4733 18.0596 20 18.75 20C19.4404 20 20 19.4733 20 18.8235V16.4706C20 15.8208 19.4404 15.2941 18.75 15.2941C18.0596 15.2941 17.5 15.8208 17.5 16.4706Z" fill="white"/>
<path d="M9.99982 14.1177C9.74067 14.1196 9.48732 14.0456 9.27482 13.9059L4.27482 10.5883C4.00533 10.4084 3.82249 10.1354 3.76628 9.82891C3.71006 9.52248 3.78504 9.20756 3.97482 8.953C4.06955 8.82576 4.19012 8.71745 4.32957 8.6343C4.46902 8.55116 4.62459 8.49484 4.7873 8.46859C4.95 8.44233 5.11662 8.44667 5.27753 8.48136C5.43845 8.51604 5.59047 8.58037 5.72482 8.67065L9.99982 11.4824L14.2498 8.47065C14.515 8.28344 14.8484 8.20305 15.1766 8.24718C15.5048 8.29131 15.8009 8.45633 15.9998 8.70594C16.1987 8.95556 16.2841 9.26932 16.2373 9.5782C16.1904 9.88709 16.015 10.1658 15.7498 10.353L10.7498 13.8824C10.5334 14.0351 10.2703 14.1177 9.99982 14.1177Z" fill="white"/>
<path d="M9.99988 11.7647C9.66836 11.7647 9.35042 11.6408 9.11599 11.4201C8.88157 11.1995 8.74988 10.9003 8.74988 10.5882V1.17647C8.74988 0.864451 8.88157 0.565211 9.11599 0.34458C9.35042 0.123949 9.66836 0 9.99988 0C10.3314 0 10.6493 0.123949 10.8838 0.34458C11.1182 0.565211 11.2499 0.864451 11.2499 1.17647V10.5882C11.2499 10.9003 11.1182 11.1995 10.8838 11.4201C10.6493 11.6408 10.3314 11.7647 9.99988 11.7647Z" fill="white"/>
</svg>
