<svg width="14" height="9" viewBox="0 0 14 9" fill="none" xmlns="http://www.w3.org/2000/svg">
<path d="M1.05059 1.21748C0.970785 1.29708 0.907468 1.39164 0.864267 1.49576C0.821065 1.59987 0.798828 1.71148 0.798828 1.8242C0.798828 1.93692 0.821065 2.04853 0.864267 2.15264C0.907468 2.25675 0.970785 2.35132 1.05059 2.43092L6.81616 8.19648C6.87958 8.26004 6.95492 8.31046 7.03785 8.34486C7.12078 8.37926 7.20969 8.39697 7.29948 8.39697C7.38926 8.39697 7.47817 8.37926 7.5611 8.34486C7.64404 8.31046 7.71937 8.26004 7.7828 8.19648L13.5484 2.43092C13.8843 2.09499 13.8843 1.5534 13.5484 1.21748C13.2124 0.881552 12.6708 0.881552 12.3349 1.21748L7.3029 6.24949L2.26403 1.21062C1.92811 0.881552 1.38651 0.881552 1.05059 1.21748Z" fill="white"/>
</svg>
