<svg width="32" height="32" viewBox="0 0 32 32" fill="none" xmlns="http://www.w3.org/2000/svg">
<path d="M28.5499 23.6874C29.3231 22.2787 29.7361 20.7008 29.7522 19.094C29.7684 17.4872 29.3871 15.9013 28.6424 14.4774C27.8976 13.0535 26.8125 11.8358 25.4836 10.9325C24.1546 10.0292 22.623 9.46837 21.0249 9.2999C20.5177 8.0781 19.7672 6.97229 18.819 6.0498C17.8708 5.1273 16.7448 4.40741 15.5096 3.93394C14.2743 3.46047 12.9556 3.24333 11.6338 3.29574C10.3119 3.34815 9.01454 3.66901 7.82064 4.23879C6.62674 4.80856 5.56127 5.61534 4.6891 6.61001C3.81693 7.60468 3.1563 8.76644 2.74742 10.0246C2.33854 11.2827 2.18996 12.6108 2.31074 13.9282C2.43151 15.2456 2.81911 16.5246 3.44993 17.6874L2.64993 20.4999C2.57782 20.7564 2.57533 21.0274 2.6427 21.2852C2.71008 21.543 2.84489 21.7782 3.03329 21.9665C3.22168 22.1549 3.45685 22.2898 3.71462 22.3571C3.97239 22.4245 4.24345 22.422 4.49993 22.3499L7.31243 21.5499C8.44407 22.1743 9.68948 22.5654 10.9749 22.6999C11.4957 23.9705 12.2789 25.1167 13.2733 26.0636C14.2678 27.0104 15.451 27.7366 16.7455 28.1944C18.0401 28.6523 19.4167 28.8316 20.7853 28.7205C22.1539 28.6094 23.4837 28.2105 24.6874 27.5499L27.4999 28.3499C27.7568 28.4264 28.0296 28.432 28.2895 28.3662C28.5493 28.3003 28.7865 28.1656 28.9761 27.976C29.1656 27.7865 29.3004 27.5493 29.3662 27.2894C29.432 27.0296 29.4264 26.7568 29.3499 26.4999L28.5499 23.6874ZM7.41243 19.9874C7.33989 19.9867 7.26784 19.9994 7.19993 20.0249L4.08743 20.9124L4.97493 17.7999C5.00613 17.7024 5.01559 17.5993 5.00263 17.4978C4.98967 17.3963 4.95462 17.2989 4.89993 17.2124C3.87706 15.4862 3.51941 13.446 3.89414 11.4747C4.26886 9.50353 5.35018 7.73686 6.93511 6.50637C8.52005 5.27589 10.4996 4.6662 12.5022 4.79176C14.5048 4.91733 16.3927 5.7695 17.8115 7.18833C19.2303 8.60715 20.0825 10.495 20.2081 12.4976C20.3336 14.5002 19.7239 16.4798 18.4935 18.0647C17.263 19.6497 15.4963 20.731 13.5251 21.1057C11.5539 21.4804 9.51366 21.1228 7.78743 20.0999C7.67598 20.0268 7.54569 19.9878 7.41243 19.9874ZM27.0249 23.7999L27.9124 26.9124L24.7999 26.0249C24.7025 25.9937 24.5994 25.9842 24.4979 25.9972C24.3964 26.0102 24.2989 26.0452 24.2124 26.0999C23.2397 26.6751 22.1594 27.0447 21.0381 27.1858C19.9169 27.3269 18.7786 27.2365 17.6937 26.9202C16.6088 26.6038 15.6004 26.0683 14.7307 25.3467C13.861 24.6251 13.1485 23.7328 12.6374 22.7249C15.1059 22.5602 17.4197 21.4645 19.1113 19.6592C20.8028 17.854 21.7459 15.4738 21.7499 12.9999C21.7471 12.2892 21.6675 11.581 21.5124 10.8874C22.8173 11.1325 24.0439 11.6884 25.0883 12.5081C26.1328 13.3278 26.9643 14.3871 27.5125 15.5963C28.0607 16.8056 28.3094 18.1291 28.2376 19.4548C28.1658 20.7806 27.7755 22.0695 27.0999 23.2124C27.0453 23.2989 27.0102 23.3963 26.9972 23.4978C26.9843 23.5993 26.9937 23.7024 27.0249 23.7999Z" fill="#959799"/>
</svg>
