<svg width="16" height="20" viewBox="0 0 16 20" fill="none" xmlns="http://www.w3.org/2000/svg">
<mask id="mask0_279_2357" style="mask-type:luminance" maskUnits="userSpaceOnUse" x="0" y="12" width="16" height="8">
<path fill-rule="evenodd" clip-rule="evenodd" d="M0 12.5776H16V19.9999H0V12.5776Z" fill="white"/>
</mask>
<g mask="url(#mask0_279_2357)">
<path fill-rule="evenodd" clip-rule="evenodd" d="M8.00091 14.0874C3.69685 14.0874 1.51501 14.8242 1.51501 16.2787C1.51501 17.7462 3.69685 18.4901 8.00091 18.4901C12.304 18.4901 14.4848 17.7533 14.4848 16.2988C14.4848 14.8313 12.304 14.0874 8.00091 14.0874ZM8.00094 19.9999C6.02214 19.9999 -0.00012207 19.9999 -0.00012207 16.2787C-0.00012207 12.9611 4.56657 12.5776 8.00094 12.5776C9.97974 12.5776 16 12.5776 16 16.2988C16 19.6164 11.4343 19.9999 8.00094 19.9999Z" fill="#8673FD"/>
</g>
<mask id="mask1_279_2357" style="mask-type:luminance" maskUnits="userSpaceOnUse" x="2" y="0" width="12" height="11">
<path fill-rule="evenodd" clip-rule="evenodd" d="M2.63623 0H13.3636V10.6881H2.63623V0Z" fill="white"/>
</mask>
<g mask="url(#mask1_279_2357)">
<path fill-rule="evenodd" clip-rule="evenodd" d="M8.001 1.43686C5.83836 1.43686 4.07876 3.18925 4.07876 5.34426C4.07169 7.49222 5.81816 9.2436 7.97171 9.25166L8.001 9.97033V9.25166C10.1626 9.25166 11.9212 7.49826 11.9212 5.34426C11.9212 3.18925 10.1626 1.43686 8.001 1.43686ZM8.00094 10.688H7.96862C5.01709 10.6789 2.62616 8.28034 2.63626 5.34123C2.63626 2.3971 5.04234 -0.000488281 8.00094 -0.000488281C10.9585 -0.000488281 13.3636 2.3971 13.3636 5.34425C13.3636 8.29141 10.9585 10.688 8.00094 10.688Z" fill="#8673FD"/>
</g>
</svg>
