<svg width="23" height="23" viewBox="0 0 23 23" fill="none" xmlns="http://www.w3.org/2000/svg">
<g clip-path="url(#clip0_0_963)">
<path d="M21.978 14.123C20.5124 20.0024 14.5557 23.5764 8.68469 22.1108C2.80515 20.6452 -0.76885 14.6887 0.696793 8.81782C2.16235 2.93845 8.11045 -0.635549 13.99 0.830094C19.861 2.28708 23.4436 8.24358 21.978 14.123Z" fill="url(#paint0_linear_0_963)"/>
<path d="M10.6498 4.15497L10.6686 12.5795C10.0144 12.0579 9.20076 11.7772 8.36414 11.7844C6.50895 11.7844 5 13.0884 5 14.6904C5 16.2925 6.50895 17.5964 8.36414 17.5964C10.2193 17.5964 11.7283 16.2925 11.7283 14.6904C11.7283 14.6125 11.7215 14.5361 11.7147 14.4598V7.06513C12.7698 7.28151 13.1907 7.3627 13.1907 7.3627C13.1907 7.3627 16.6485 7.95833 16.9075 8.3999C16.9206 8.41904 16.9401 8.43295 16.9625 8.43922C16.9849 8.44548 17.0088 8.4437 17.03 8.43418C17.0512 8.42467 16.9837 8.40802 16.9939 8.38714C17.0041 8.36626 15.7154 7.06513 15.7098 7.04255L13.6801 5.56666C12.6322 4.97387 11.7697 4.38216 10.8648 4.01114C10.8411 4.00172 10.8155 3.99819 10.7902 4.00087C10.7649 4.00354 10.7406 4.01234 10.7194 4.0265C10.6983 4.04066 10.6809 4.05975 10.6687 4.08213C10.6566 4.10452 10.6501 4.12952 10.6498 4.15497Z" fill="white"/>
</g>
<defs>
<linearGradient id="paint0_linear_0_963" x1="11.3312" y1="0.4962" x2="11.3312" y2="22.4372" gradientUnits="userSpaceOnUse">
<stop stop-color="#F9AA4B"/>
<stop offset="1" stop-color="#F7931A"/>
</linearGradient>
<clipPath id="clip0_0_963">
<rect width="21.9379" height="21.9379" fill="white" transform="translate(0.36792 0.501221)"/>
</clipPath>
</defs>
</svg>
