<svg width="23" height="23" viewBox="0 0 23 23" fill="none" xmlns="http://www.w3.org/2000/svg">
<path d="M2.36743 20.1604C2.36743 20.3058 2.42521 20.4453 2.52807 20.5482C2.63092 20.651 2.77042 20.7088 2.91588 20.7088H13.0051C13.1506 20.7088 13.2901 20.651 13.393 20.5482C13.4958 20.4453 13.5536 20.3058 13.5536 20.1604V18.4196C13.5536 17.5879 12.8768 16.9114 12.0454 16.9114H11.8082V15.1859C11.8082 15.0405 11.7504 14.901 11.6475 14.7981C11.5447 14.6953 11.4052 14.6375 11.2597 14.6375H4.66104C4.51559 14.6375 4.37609 14.6953 4.27323 14.7981C4.17038 14.901 4.1126 15.0405 4.1126 15.1859V16.9114H3.87567C3.47579 16.9118 3.09242 17.0708 2.80966 17.3536C2.52691 17.6363 2.36787 18.0197 2.36743 18.4196V20.1604ZM5.20949 15.7344H10.7113V16.9114H5.20949V15.7344ZM3.46433 18.4196C3.46433 18.1928 3.64888 18.0083 3.87567 18.0083H12.0454C12.2721 18.0083 12.4567 18.1928 12.4567 18.4196V19.6119H3.46433V18.4196ZM19.9625 16.2669C20.1841 16.2565 20.4014 16.2021 20.6018 16.107C20.8023 16.0119 20.9818 15.878 21.1301 15.713C21.4107 15.4028 21.5663 14.9996 21.567 14.5813C21.5666 14.3454 21.5171 14.1121 21.4215 13.8964C21.3259 13.6807 21.1865 13.4874 21.0119 13.3286L15.6402 8.50747L17.5268 6.41926C17.7039 6.22257 17.7958 5.9637 17.7823 5.69938C17.7689 5.43506 17.6511 5.18686 17.455 5.0092L13.8177 1.72344C13.7209 1.63471 13.6073 1.56629 13.4836 1.52225C13.3599 1.47821 13.2286 1.45944 13.0976 1.46704C12.9666 1.4733 12.8381 1.50549 12.7196 1.56174C12.6011 1.61799 12.495 1.69718 12.4073 1.79474L6.30913 8.54559C6.22089 8.6427 6.15279 8.75635 6.10878 8.87996C6.06476 9.00357 6.04571 9.13468 6.05273 9.26571C6.06644 9.53198 6.18272 9.77713 6.38043 9.95593L10.018 13.2417C10.1151 13.33 10.2287 13.3981 10.3524 13.4421C10.476 13.4861 10.6071 13.5052 10.7381 13.4981C10.8691 13.4918 10.9975 13.4595 11.116 13.4032C11.2344 13.3469 11.3405 13.2677 11.4281 13.1701L13.3784 11.0114L18.7471 15.8323C18.9109 15.9816 19.1026 16.0968 19.3112 16.1714C19.5199 16.2461 19.7412 16.2785 19.9625 16.2669ZM12.9341 9.86653C12.9327 9.86845 12.9308 9.86927 12.9295 9.87092C12.9281 9.87256 12.9273 9.87448 12.9259 9.87585L10.6803 12.3617L7.18912 9.20812L13.1554 2.60315L16.6466 5.75673L12.9341 9.86708V9.86653ZM14.1136 10.1972L14.905 9.32137L20.2762 14.1422C20.3993 14.2544 20.4701 14.4143 20.4701 14.5813C20.4693 14.7328 20.4107 14.8782 20.3063 14.988C20.2019 15.0977 20.0595 15.1634 19.9082 15.1717C19.7513 15.1785 19.5981 15.1233 19.4818 15.0178L14.1136 10.1972Z" fill="white"/>
</svg>
