<svg width="174" height="90" viewBox="0 0 174 90" fill="none" xmlns="http://www.w3.org/2000/svg">
<path d="M35.5263 0.974492L35.6447 53.9482C31.531 50.6689 26.4147 48.9039 21.154 48.9492C9.48838 48.9492 0 57.1483 0 67.2221C0 77.2959 9.48838 85.495 21.154 85.495C32.8196 85.495 42.308 77.2959 42.308 67.2221C42.308 66.7321 42.2652 66.2519 42.2225 65.7717V19.2737C48.8569 20.6344 51.5039 21.1449 51.5039 21.1449C51.5039 21.1449 73.2465 24.8903 74.875 27.6669C74.9579 27.7873 75.0804 27.8747 75.2212 27.9141C75.3619 27.9535 75.512 27.9423 75.6454 27.8825C75.7787 27.8226 75.3544 27.718 75.4185 27.5867C75.4827 27.4553 67.379 19.2737 67.3442 19.1318L54.5813 9.85126C47.9916 6.12376 42.5686 2.40302 36.878 0.0700519C36.7293 0.0108056 36.5684 -0.0113612 36.4092 0.00546493C36.25 0.022291 36.0973 0.0776041 35.9642 0.166631C35.8312 0.255658 35.7218 0.375726 35.6455 0.516471C35.5692 0.657215 35.5283 0.814412 35.5263 0.974492Z" fill="white"/>
<path d="M61.397 58.1773C60.466 60.8667 59.5178 63.4527 58.5524 65.9352C57.587 68.4178 56.7767 70.2969 56.1216 71.5726C55.501 72.8829 54.9493 73.7793 54.4666 74.262C53.9839 74.7448 53.4839 75.0723 52.9667 75.2447C52.484 75.4171 51.984 75.4861 51.4668 75.4516C50.9841 75.4171 50.4842 75.3826 49.967 75.3482C47.0707 74.8999 46.1742 72.8139 47.2776 69.0901C48.0016 66.1249 48.5878 63.7113 49.036 61.8494C49.4843 59.953 49.8463 58.4014 50.1221 57.1947C50.4325 55.9534 50.6911 54.9362 50.8979 54.1432C51.1048 53.3157 51.3289 52.5054 51.5703 51.7124C51.8116 50.9194 52.1047 50.0229 52.4495 49.023C52.8288 48.0231 53.3115 46.6956 53.8977 45.0406C52.5874 45.213 51.4151 45.0751 50.3807 44.6268C48.8636 43.9717 48.243 42.5581 48.5188 40.3859C48.6568 39.3859 49.1912 38.455 50.1221 37.593C50.6049 37.1448 51.1738 36.6621 51.8289 36.1449C53.1736 35.076 55.8458 33.9382 59.8454 32.7314C63.9829 31.4901 67.5343 30.904 70.4996 30.9729C71.2926 30.835 72.1029 30.9384 72.9304 31.2832C73.7924 31.5936 74.482 32.0246 74.9992 32.5762C75.5164 33.1279 75.775 33.7313 75.775 34.3864C75.8094 35.0415 75.3957 35.6277 74.5337 36.1449C74.1199 36.4207 73.8269 36.8862 73.6545 37.5413C73.4821 38.1619 73.2924 38.8343 73.0855 39.5583C72.8787 40.2479 72.5684 40.8858 72.1546 41.472C71.7753 42.0581 71.1547 42.4029 70.2927 42.5063C69.8445 42.7477 69.2066 42.9201 68.3791 43.0235C67.5861 43.127 67.0516 43.2132 66.7758 43.2821C66.5344 43.3166 66.3965 43.4028 66.362 43.5407C65.7414 45.3682 65.0001 47.5921 64.1381 50.2125C63.2761 52.7985 62.3624 55.4534 61.397 58.1773ZM54.4148 44.4717C54.3459 44.4717 54.3114 44.4889 54.3114 44.5234C54.3114 44.5234 54.3459 44.5234 54.4148 44.5234V44.4717ZM76.1863 49.023C76.6345 47.8852 77.7034 47.1094 79.3929 46.6956C80.9789 46.2819 82.4616 46.3336 83.8408 46.8508C85.2544 47.4024 85.8923 48.2989 85.7544 49.5402C85.3751 50.747 84.8924 52.2296 84.3062 53.988C83.7546 55.712 83.2201 57.4877 82.7029 59.3151C81.3237 64.0044 80.5307 67.3144 80.3238 69.2453C79.8066 72.3484 78.9447 74.0207 77.7379 74.262C77.3931 74.331 77.0655 74.3827 76.7552 74.4172C75.9966 74.4517 75.5139 74.6586 75.3071 75.0378C75.1002 75.4171 74.7554 75.6929 74.2727 75.8653C73.79 76.0722 73.2555 76.1584 72.6694 76.1239C72.1177 76.1239 71.5488 75.986 70.9626 75.7102C70.3765 75.4688 69.8765 75.1068 69.4628 74.6241C68.4973 73.4518 68.3077 71.883 68.8939 69.9176C69.4455 66.1593 70.8419 61.3839 73.0831 55.5913C74.152 52.7295 75.1864 50.5401 76.1863 49.023ZM85.9612 41.2651C84.2717 41.6099 82.8926 41.5064 81.8237 40.9548C80.7893 40.4031 80.1859 39.748 80.0135 38.9894C79.8411 38.1964 80.0825 37.3861 80.7376 36.5586C81.4961 35.5242 82.634 34.8519 84.1511 34.5416C84.8407 34.4726 85.3406 34.4381 85.6509 34.4381C85.9612 34.4381 86.3405 34.5071 86.7888 34.645C87.9266 34.7484 88.6679 35.2484 89.0127 36.1449C89.4954 36.9034 89.5299 37.7654 89.1161 38.7308C88.7369 39.6963 87.6852 40.541 85.9612 41.2651ZM98.4406 50.2643C100.165 47.6783 102.561 46.1267 105.63 45.6095C106.629 45.4371 107.853 45.3164 109.302 45.2475C110.784 45.1785 112.043 45.5061 113.077 46.2301C114.146 46.9542 114.939 47.8852 115.456 49.023C116.353 51.0573 116.491 53.5571 115.87 56.5223C115.525 58.1428 115.111 59.9358 114.629 61.9011C114.146 63.832 113.422 65.7456 112.457 67.642C111.491 69.5383 110.233 71.314 108.681 72.9691C107.129 74.6241 105.112 75.9343 102.63 76.8997C101.147 77.4859 99.837 77.6928 98.6992 77.5204C97.5958 77.3824 96.7683 77.1583 96.2166 76.848C95.665 76.5377 95.2857 76.0895 95.0788 75.5033C94.3892 77.4686 93.7341 79.4512 93.1135 81.451C92.5273 83.4853 91.7343 85.4162 90.7344 87.2436C90.0448 87.6918 89.2 88.0194 88.2001 88.2263C87.2002 88.4676 86.2176 88.4159 85.2521 88.0711C84.2867 87.7608 83.5971 87.1747 83.1833 86.3127C82.7351 85.4852 82.511 84.5714 82.511 83.5715C82.511 82.2268 82.8386 80.5891 83.4937 78.6582C84.4591 75.7964 85.2521 73.5897 85.8728 72.0381C86.4589 70.4865 86.8382 69.4866 87.0106 69.0384C87.183 68.5557 87.3554 68.0557 87.5278 67.5385C88.2863 65.5387 88.838 63.9182 89.1828 62.6769C89.5621 61.4012 89.9069 60.2978 90.2172 59.3669V59.3151C90.562 57.798 91.0964 56.1947 91.8205 54.5052C92.579 52.7813 93.0962 51.7296 93.3721 51.3504C93.9582 50.7642 94.5616 50.4022 95.1822 50.2643C95.8029 50.1263 96.5097 50.0401 97.3027 50.0057H97.4579L98.4406 50.2643ZM102.371 58.9014C101.957 59.6255 101.268 60.2978 100.302 60.9184L99.837 62.0046C99.4922 62.901 99.1646 63.8147 98.8543 64.7457C98.544 65.6766 98.1992 66.5903 97.8199 67.4868C98.1647 67.8316 98.4233 68.1592 98.5957 68.4695C100.527 66.78 102.285 64.556 103.871 61.7977C104.492 60.6598 104.888 59.522 105.061 58.3842C105.268 57.2464 105.319 56.5223 105.216 56.212C105.112 55.9017 104.94 55.7465 104.699 55.7465C104.492 55.7465 104.268 55.8155 104.026 55.9534C103.819 56.0568 103.647 56.1775 103.509 56.3154C103.406 56.4189 103.423 56.4189 103.561 56.3154C103.182 56.7637 102.906 57.1602 102.733 57.505C102.561 57.8153 102.44 58.2808 102.371 58.9014ZM130.449 66.4007C131.484 66.1249 132.604 66.0559 133.811 66.1938C135.018 66.3317 136.069 66.6765 136.966 67.2282C137.862 67.7799 138.466 68.5384 138.776 69.5039C139.121 70.4693 138.914 71.6244 138.155 72.9691C137.776 73.0035 137 73.1242 135.828 73.3311C134.69 73.538 133.345 73.7621 131.794 74.0034C130.277 74.2448 128.656 74.4689 126.932 74.6758C125.243 74.8827 123.657 75.0034 122.174 75.0378C118.761 75.1758 116.864 74.7792 116.485 73.8483C115.14 70.8486 116.623 67.1765 120.933 62.8321C122.071 61.7287 123.122 60.7288 124.088 59.8323C125.053 58.9014 125.829 58.1084 126.415 57.4532C127.036 56.7981 127.26 56.3154 127.087 56.0051C126.432 55.8672 126.036 55.7637 125.898 55.6948C125.657 55.5224 125.053 55.3845 124.088 55.281C123.157 55.1431 122.433 54.8156 121.916 54.2984C121.433 53.7467 121.226 53.1261 121.295 52.4365C121.398 51.7124 121.743 50.9883 122.329 50.2643C122.95 49.5057 123.777 48.8506 124.812 48.2989C125.846 47.7472 126.95 47.2818 128.122 46.9025C129.329 46.5232 130.553 46.2129 131.794 45.9715C133.863 45.5233 136.311 45.213 139.138 45.0406C139.517 45.0406 139.776 45.1785 139.914 45.4544C140.086 45.6957 140.241 45.9715 140.379 46.2819C140.517 46.5577 140.69 46.8163 140.897 47.0577C141.138 47.2645 141.603 47.3335 142.293 47.2645C142.983 47.1611 143.465 47.4542 143.741 48.1438C144.051 48.7989 144.138 49.6264 144 50.6263C143.862 51.6262 143.534 52.6606 143.017 53.7295C142.5 54.7638 141.827 55.5914 141 56.212C136.862 60.3495 134.276 62.8838 133.242 63.8147L130.449 66.4007ZM118.864 67.3834C118.899 67.3489 118.899 67.3489 118.864 67.3834C118.83 67.4178 118.778 67.4523 118.709 67.4868C118.743 67.4868 118.795 67.4523 118.864 67.3834ZM145.012 55.5913C145.047 54.1777 144.943 53.0226 144.702 52.1262C144.461 51.2297 144.461 50.4884 144.702 49.9022C144.978 49.2816 145.392 48.8506 145.943 48.6092C146.529 48.3679 147.202 48.2989 147.96 48.4024C148.753 48.4713 149.529 48.6954 150.288 49.0747C152.115 49.9022 153.391 51.0745 154.115 52.5916C154.287 53.3502 154.218 54.2984 153.908 55.4362C153.632 56.5395 153.305 57.6946 152.925 58.9014C152.546 60.0737 152.184 61.2288 151.839 62.3666C151.494 63.4699 151.356 64.4009 151.425 65.1594C152.322 64.6078 153.098 63.7803 153.753 62.6769C154.442 61.5736 155.063 60.4013 155.615 59.16C156.201 57.8842 156.735 56.6257 157.218 55.3845C157.735 54.1432 158.218 53.1605 158.666 52.4365C159.149 51.7124 159.528 51.1435 159.804 50.7297C160.08 50.2815 160.356 49.885 160.632 49.5402C161.08 48.954 161.666 48.3851 162.39 47.8334C162.597 47.661 163.217 47.6955 164.252 47.9369C165.321 48.1438 166.097 48.2989 166.579 48.4024C167.096 48.4713 167.441 48.4368 167.614 48.2989L168.338 47.7817C169.303 47.299 170.441 47.3162 171.751 47.8334C173.027 48.3851 173.699 49.2299 173.768 50.3677C173.734 50.4022 173.717 50.4711 173.717 50.5746L173.872 50.6263L173.51 50.9366C173.268 51.3848 173.079 51.6952 172.941 51.8676C172.837 52.0055 172.596 52.2296 172.217 52.5399C169.872 55.0569 167.183 59.7289 164.148 66.5559C163.39 68.2454 162.7 69.7625 162.08 71.1072C163.011 71.6933 163.717 72.4519 164.2 73.3828C164.683 74.3138 164.683 75.3309 164.2 76.4343C161.338 78.7099 159.735 80.8476 159.39 82.8475C159.218 84.0887 158.994 84.968 158.718 85.4852C158.477 86.0023 158.08 86.5023 157.528 86.985C155.666 88.3642 153.477 88.0194 150.96 85.9506C149.167 84.1577 149.081 81.9165 150.701 79.2271C151.115 78.503 151.512 77.7445 151.891 76.9515C152.443 75.7791 153.322 74.0379 154.529 71.7278C151.563 73.4518 148.839 73.4173 146.357 71.6244C144.598 70.2797 143.978 67.2282 144.495 62.47C144.84 59.2979 145.012 57.005 145.012 55.5913Z" fill="white"/>
</svg>
